<?xml version="1.0" encoding="utf-8"?>
<!-- Generator: Adobe Illustrator 21.0.0, SVG Export Plug-In . SVG Version: 6.00 Build 0)  -->
<svg version="1.0" id="Ebene_1" xmlns="http://www.w3.org/2000/svg" xmlns:xlink="http://www.w3.org/1999/xlink" x="0px" y="0px"
	 viewBox="0 0 513 195" style="enable-background:new 0 0 513 195;" xml:space="preserve">
<style type="text/css">
	.st0{fill:#ED6048;}
	.st1{fill:#3F3F3F;}
	.st2{fill:#FFFFFF;}
</style>
<g>
	<g>
		<path class="st0" d="M34.4,105.9c0,34.2,27.8,62.1,62.1,62.1s62.1-27.8,62.1-62.1c0-15.5-5.8-30.4-16.3-41.9
			c-3.1,1.4-7.4,2.6-12.5,3.5c0,0.3,0,0.5,0.1,0.8c2.2,2,4.2,4.1,6.1,6.4l1.3,1.6l-0.7,0.4L51.4,128l-0.8-1.9
			c-2.8-6.4-4.2-13.2-4.2-20.2c0-14.5,6.6-28.7,17.6-38.2c-5.5-0.8-10.2-1.9-13.7-3C40,76.1,34.4,90.7,34.4,105.9z M142.9,86.6
			l0.8,2.1c2,5.5,3,11.2,3,17.1c0,27.7-22.4,50.3-50.1,50.3c-14.1,0-27.7-6-37.3-16.5l-1.5-1.7L142.9,86.6z"/>
	</g>
	<g>
		<polygon class="st0" points="437.2,64.5 437.2,52.5 414.1,52.5 410,52.5 402.1,52.5 402.1,118.2 414.1,118.2 414.1,94.8 
			437.2,94.8 437.2,82.7 414.1,82.7 414.1,64.5 		"/>
		<path class="st0" d="M375.7,53.7v12.2c7,3.8,11.8,11.2,11.8,19.7c0,12.3-10,22.4-22.4,22.4c-12.3,0-22.4-10-22.4-22.4
			c0-8.5,4.8-15.9,11.8-19.7V53.7c-13.4,4.4-23.1,17.1-23.1,31.9c0,18.5,15.1,33.6,33.6,33.6c18.5,0,33.6-15.1,33.6-33.6
			C398.8,70.7,389.1,58.1,375.7,53.7z"/>
		<polygon class="st0" points="478.6,64.5 478.6,52.5 455.4,52.5 451.3,52.5 443.4,52.5 443.4,118.2 455.4,118.2 455.4,94.8 
			478.6,94.8 478.6,82.7 455.4,82.7 455.4,64.5 		"/>
		<rect x="359.2" y="46.2" class="st0" width="12" height="34"/>
		<g>
			<g>
				<path class="st1" d="M187.4,102.4c0.8,1.5,1.9,2.8,3.2,3.7c1.3,1,2.9,1.7,4.6,2.1s3.6,0.7,5.5,0.7c1.3,0,2.7-0.1,4.1-0.3
					c1.5-0.2,2.9-0.6,4.1-1.2c1.3-0.6,2.4-1.5,3.2-2.5s1.3-2.4,1.3-4.1c0-1.8-0.6-3.2-1.7-4.3c-1.1-1.1-2.6-2-4.5-2.8
					c-1.8-0.7-3.9-1.4-6.3-1.9c-2.3-0.6-4.7-1.2-7.1-1.8c-2.5-0.6-4.8-1.4-7.2-2.3c-2.3-0.9-4.4-2-6.3-3.5c-1.8-1.4-3.3-3.2-4.5-5.3
					c-1.1-2.1-1.7-4.7-1.7-7.7c0-3.4,0.7-6.3,2.2-8.8c1.4-2.5,3.3-4.6,5.7-6.2c2.3-1.7,5-2.9,7.9-3.7s5.9-1.2,8.8-1.2
					c3.4,0,6.7,0.4,9.9,1.2c3.2,0.8,6,2,8.4,3.7c2.5,1.7,4.4,3.9,5.8,6.6c1.4,2.7,2.2,5.9,2.2,9.7h-14c-0.1-2-0.5-3.6-1.2-4.9
					c-0.7-1.3-1.6-2.3-2.8-3c-1.2-0.7-2.5-1.3-4-1.6c-1.5-0.3-3.1-0.5-4.9-0.5c-1.2,0-2.3,0.1-3.5,0.4c-1.2,0.2-2.2,0.7-3.2,1.3
					c-1,0.6-1.7,1.4-2.3,2.3c-0.6,0.9-0.9,2.1-0.9,3.5c0,1.3,0.2,2.3,0.7,3.1c0.5,0.8,1.5,1.5,2.9,2.2c1.4,0.7,3.4,1.4,6,2
					c2.5,0.7,5.9,1.5,10,2.6c1.2,0.2,2.9,0.7,5.1,1.3s4.3,1.7,6.5,3.1c2.1,1.4,4,3.3,5.6,5.7c1.6,2.4,2.3,5.4,2.3,9.1
					c0,3-0.6,5.8-1.7,8.4c-1.2,2.6-2.9,4.8-5.2,6.7c-2.3,1.9-5.2,3.3-8.6,4.4s-7.3,1.6-11.8,1.6c-3.6,0-7.1-0.4-10.5-1.3
					c-3.4-0.9-6.4-2.3-9-4.2c-2.6-1.9-4.7-4.3-6.2-7.3c-1.5-2.9-2.3-6.4-2.2-10.5h14C186.2,99,186.6,100.8,187.4,102.4z"/>
			</g>
			<g>
				<path class="st1" d="M241.6,71v6.1h0.2c1.6-2.6,3.6-4.4,6.1-5.6c2.5-1.2,5.2-1.7,8.1-1.7c3.7,0,7,0.7,9.7,2.1
					c2.7,1.4,4.9,3.3,6.7,5.6c1.8,2.3,3.1,5,4,8.1c0.9,3.1,1.3,6.3,1.3,9.7c0,3.2-0.4,6.3-1.3,9.2c-0.9,2.9-2.2,5.6-3.9,7.8
					c-1.7,2.3-3.9,4.1-6.5,5.4c-2.6,1.3-5.7,2-9.2,2c-2.9,0-5.7-0.6-8.1-1.8c-2.5-1.2-4.5-3-6.1-5.3h-0.2v22.5h-13.1V71H241.6z
					 M258.6,108.7c1.4-0.9,2.6-2,3.5-3.4c0.9-1.4,1.5-3,1.9-4.8c0.4-1.8,0.6-3.7,0.6-5.6c0-1.9-0.2-3.8-0.6-5.6
					c-0.4-1.8-1.1-3.5-2-4.9c-0.9-1.4-2.1-2.6-3.5-3.5c-1.4-0.9-3.2-1.3-5.3-1.3c-2.1,0-3.9,0.4-5.4,1.3c-1.4,0.9-2.6,2-3.5,3.5
					c-0.9,1.4-1.5,3-1.9,4.9c-0.4,1.8-0.6,3.7-0.6,5.7c0,1.9,0.2,3.8,0.6,5.6c0.4,1.8,1,3.5,1.9,4.8c0.9,1.4,2.1,2.5,3.5,3.4
					c1.5,0.9,3.3,1.3,5.3,1.3C255.4,110,257.2,109.6,258.6,108.7z"/>
			</g>
			<g>
				<path class="st1" d="M297.5,132.7c-2.5,1.7-6,2.5-10.5,2.5c-1.4,0-2.7,0-4-0.1c-1.3-0.1-2.7-0.2-4-0.3V124
					c1.2,0.1,2.5,0.2,3.8,0.4c1.3,0.1,2.6,0.2,3.9,0.1c1.7-0.2,3-0.9,3.8-2c0.8-1.2,1.2-2.5,1.2-3.9c0-1-0.2-2-0.6-2.9L274.5,71
					h13.9l10.8,32.6h0.2L309.7,71h13.5l-19.9,53.5C302,128.3,300,131.1,297.5,132.7z"/>
			</g>
		</g>
	</g>
	<g>
		<path class="st1" d="M96.5,154c26.3,0,47.8-21.3,48-47.6l-19-6.6l-64.3,38.7C70.3,148.3,83.1,154,96.5,154z"/>
		<path class="st1" d="M48.9,61.9l0.6,0.3l0.9,0.3c3.8,1.3,9.2,2.5,15.4,3.3l3.4,0.5L67.1,68c0.2,6.8,2.6,13,6.5,18l-13,1.1
			l4.6,12.7l-16.7,6.9c0.1,6.3,1.4,12.4,3.9,18.2l71.8-43.2c2-3.7,3.2-7.8,3.6-12.2l-0.1-0.1l0-0.6c0-0.4-0.1-1-0.1-1.4l-0.1-1.6
			l0.4-0.1c0,0,0-0.1,0-0.1c3.2-0.5,6-1.1,8.5-1.7c2.2-0.6,4-1.3,5.5-2l1-0.5l0.2-0.1c2.1-1.1,3.1-2,3.1-3.1c0-3.1-7.7-5.9-19.8-7.7
			l-6.3-18.7c0,0-13.1-4.4-23.6-4.8c-10.5-0.4-21.8,3.9-21.8,3.9l-6,18.9c-14.9,1.7-24.9,4.8-24.9,8.3
			C43.8,59.7,45.4,60.6,48.9,61.9z M120.1,67.1c0,0-5.5,11.5-12.7,10s-9.6-5.4-9.6-5.4L120.1,67.1z M95,71.7c0,0-2.4,3.9-9.6,5.4
			s-12.7-10-12.7-10L95,71.7z"/>
	</g>
	<path class="st0" d="M34.4,105.9c0,34.2,27.8,62.1,62.1,62.1s62.1-27.8,62.1-62.1c0-15.5-5.8-30.4-16.3-41.9
		c-3.1,1.4-7.4,2.6-12.5,3.5c0,0.3,0,0.5,0.1,0.8c2.2,2,4.2,4.1,6.1,6.4l1.3,1.6l-0.7,0.4L51.4,128l-0.8-1.9
		c-2.8-6.4-4.2-13.2-4.2-20.2c0-14.5,6.6-28.7,17.6-38.2c-5.5-0.8-10.2-1.9-13.7-3C40,76.1,34.4,90.7,34.4,105.9z M142.9,86.6
		l0.8,2.1c2,5.5,3,11.2,3,17.1c0,27.7-22.4,50.3-50.1,50.3c-14.1,0-27.7-6-37.3-16.5l-1.5-1.7L142.9,86.6z"/>
	<g>
		<g>
			<path class="st1" d="M391.8,160.2L380.1,124h8.2l8.1,25.5h0.1l8.2-25.5h8.2l-12,36.2H391.8z"/>
		</g>
		<g>
			<path class="st1" d="M432.2,124c2.3,0,4.2,0.3,5.8,1c1.6,0.7,2.9,1.5,3.9,2.6c1,1.1,1.7,2.3,2.2,3.7c0.5,1.4,0.7,2.8,0.7,4.3
				c0,1.5-0.2,2.9-0.7,4.3c-0.5,1.4-1.2,2.6-2.2,3.7c-1,1.1-2.3,2-3.9,2.6c-1.6,0.7-3.5,1-5.8,1h-8.4v13h-8V124H432.2z M430,141
				c0.9,0,1.8-0.1,2.6-0.2c0.8-0.1,1.6-0.4,2.2-0.8c0.6-0.4,1.2-0.9,1.5-1.6c0.4-0.7,0.6-1.6,0.6-2.8c0-1.1-0.2-2.1-0.6-2.8
				c-0.4-0.7-0.9-1.3-1.5-1.6c-0.6-0.4-1.4-0.7-2.2-0.8c-0.8-0.1-1.7-0.2-2.6-0.2h-6.2V141H430z"/>
		</g>
		<g>
			<path class="st1" d="M455.6,124l15.1,24.3h0.1V124h7.5v36.2h-8L455.2,136h-0.1v24.2h-7.5V124H455.6z"/>
		</g>
	</g>
	<g>
		<path class="st1" d="M135.8,160.2h249.3l-5.5-16.2H151.7C147.3,150.3,142,155.8,135.8,160.2z"/>
	</g>
</g>
</svg>
